<?xml version="1.0" encoding="utf-8"?>
<!-- Generator: Adobe Illustrator 19.1.1, SVG Export Plug-In . SVG Version: 6.00 Build 0)  -->
<!DOCTYPE svg PUBLIC "-//W3C//DTD SVG 1.1//EN" "http://www.w3.org/Graphics/SVG/1.1/DTD/svg11.dtd">
<svg version="1.1" id="Layer_1" xmlns="http://www.w3.org/2000/svg" xmlns:xlink="http://www.w3.org/1999/xlink" x="0px" y="0px"
	 width="58px" height="58px" viewBox="0 0 58 58" style="enable-background:new 0 0 58 58;" xml:space="preserve">
<style type="text/css">
	.st0{fill:#FF3300;}
	.st1{fill:#FFFFFF;}
</style>
<g>
	<path class="st0" d="M58,45c0,7.2-5.8,13-13,13H13C5.8,58,0,52.2,0,45V13C0,5.8,5.8,0,13,0H45c7.2,0,13,5.8,13,13V45z"/>
	<path class="st1" d="M37.4,19.1c0,0-5.1-5.7-3-13.8c0,0-21.2,8.9-20.5,27.2c0,0,1,9,9.8,12.9c0,0,6.1,2.7,6.2,6.6
		c0,0,13.9-4.9,14.6-18.1C44.5,33.9,44.8,27,37.4,19.1z M37.5,39.5c-0.3,3.6-3,6.8-6.2,8.3c0.4-0.2-0.3-2.1-0.5-2.3
		c-0.4-0.7-0.9-1.4-1.6-1.9c-1.3-1.3-2.6-2.6-3.5-4.2c-2.5-4.6,0.6-9,4.4-11.9c0.3,1.5,1.1,2.8,2.1,3.9c0.9,0.9,1.9,1.6,2.8,2.5
		C36.6,35.4,37.7,37.2,37.5,39.5z"/>
</g>
</svg>
