<?xml version="1.0" encoding="utf-8"?>
<!-- Generator: Adobe Illustrator 19.1.1, SVG Export Plug-In . SVG Version: 6.00 Build 0)  -->
<!DOCTYPE svg PUBLIC "-//W3C//DTD SVG 1.1//EN" "http://www.w3.org/Graphics/SVG/1.1/DTD/svg11.dtd">
<svg version="1.1" id="Layer_1" xmlns="http://www.w3.org/2000/svg" xmlns:xlink="http://www.w3.org/1999/xlink" x="0px" y="0px"
	 width="58px" height="58px" viewBox="0 0 58 58" style="enable-background:new 0 0 58 58;" xml:space="preserve">
<style type="text/css">
	.st0{fill:#244386;}
	.st1{fill:#FFFFFF;}
	.st2{fill:#244386;stroke:#FFFFFF;stroke-width:2.4145;}
</style>
<g>
	<path class="st0" d="M58,45c0,7.2-5.8,13-13,13H13C5.8,58,0,52.2,0,45V13C0,5.8,5.8,0,13,0H45c7.2,0,13,5.8,13,13V45z"/>
	<g>
		<path class="st1" d="M29.1,24.9h0.1h12.6c0,0,6-0.4,9.9-1.4c0,0-5.8-1.3-7.7-1.2c-0.5,0-3.3-5.7-8.1-12.3c-0.8-1-1.5-3.1-5,1.3
			c0,0-0.9,1-1.9,1c-0.9,0-1.9-1-1.9-1c-3.5-4.4-4.2-2.3-5-1.3c-4.7,6.5-7.6,12.3-8.1,12.3c-1.9-0.1-7.7,1.1-7.7,1.1
			c3.9,1.1,9.9,1.4,9.9,1.4H29.1z"/>
		<path class="st2" d="M26.4,30.4c-4.9,0.1-7.6-3.2-7.6-3.2C20.8,34.9,26.4,30.4,26.4,30.4z"/>
		<path class="st2" d="M39.5,27.2c0,0-2.7,3.3-7.6,3.2C31.9,30.4,37.6,34.9,39.5,27.2z"/>
		<path class="st1" d="M29.4,46.5c4,0,11.9-2.3,12.6-10.6H16.4C16.4,35.9,17.2,46.5,29.4,46.5z"/>
	</g>
</g>
</svg>
