<?xml version="1.0" encoding="utf-8"?>
<!-- Generator: Adobe Illustrator 19.1.1, SVG Export Plug-In . SVG Version: 6.00 Build 0)  -->
<!DOCTYPE svg PUBLIC "-//W3C//DTD SVG 1.1//EN" "http://www.w3.org/Graphics/SVG/1.1/DTD/svg11.dtd">
<svg version="1.1" id="Layer_1" xmlns="http://www.w3.org/2000/svg" xmlns:xlink="http://www.w3.org/1999/xlink" x="0px" y="0px"
	 width="58px" height="58px" viewBox="0 0 58 58" style="enable-background:new 0 0 58 58;" xml:space="preserve">
<style type="text/css">
	.st0{fill:#386319;}
	.st1{fill:#FFFFFF;}
</style>
<g>
	<path class="st0" d="M58,45c0,7.2-5.8,13-13,13H13C5.8,58,0,52.2,0,45V13C0,5.8,5.8,0,13,0H45c7.2,0,13,5.8,13,13V45z"/>
	<path class="st1" d="M31.3,43.8v7.3h-4.5v-6.9c-4.5-0.1-6.6-1.1-8.6-2.2l1.5-5.9c2.1,1.2,5.1,2.2,8.4,2.2c2.9,0,4.9-1.2,4.9-3.1
		c0-1.9-1.6-3.1-5.4-4.4c-5.4-1.8-9.3-4.3-9.3-9.3c0-4.5,3.9-8,8.4-9v-6h4.5v5.7c4.5,0.1,6,0.9,7.8,1.7l-1.3,5.7
		c-1.3-0.6-3.5-1.8-7.2-1.8c-3.3,0-4.3,1.5-4.3,2.9c0,1.6,1.8,2.7,6.1,4.3c6,2.1,8.1,4.9,8.1,9.5C40.5,39,35.8,42.8,31.3,43.8z"/>
</g>
</svg>
