<?xml version="1.0" encoding="utf-8"?>
<!-- Generator: Adobe Illustrator 19.1.1, SVG Export Plug-In . SVG Version: 6.00 Build 0)  -->
<!DOCTYPE svg PUBLIC "-//W3C//DTD SVG 1.1//EN" "http://www.w3.org/Graphics/SVG/1.1/DTD/svg11.dtd">
<svg version="1.1" id="Layer_1" xmlns="http://www.w3.org/2000/svg" xmlns:xlink="http://www.w3.org/1999/xlink" x="0px" y="0px"
	 width="58px" height="58px" viewBox="0 0 58 58" style="enable-background:new 0 0 58 58;" xml:space="preserve">
<style type="text/css">
	.st0{fill:#FF920A;}
	.st1{fill:#FFFFFF;}
</style>
<g>
	<path class="st0" d="M58,45c0,7.2-5.8,13-13,13H13C5.8,58,0,52.2,0,45V13C0,5.8,5.8,0,13,0H45c7.2,0,13,5.8,13,13V45z"/>
	<g>
		<path class="st1" d="M34.7,47.6L30.6,24c1.3-1.5-0.8-1.4-0.8-1.4c-1,0.1-1-0.2-1-0.2c-2.3-2.8-5.4-2.3-6.4-2l-0.1-0.6
			c0,0,0.8,0,0.4-1.4c0,0,0-1.3-1.1-1c0,0-1.2-0.1-0.6,1.8c0,0,0,0.8,0.7,0.8l0,0.6c-1.2,0.1-4,0.7-5.1,3.8c0,0,0.2,0.2-0.8,0.5
			c0,0-2,0.5-0.2,1.5L20,49.9c0,0-1.6,1.9,0.6,2.2c0.1,0,0.2,0,0.3,0c0.2,0,0.5,0,0.7,0c0.5,0,0.9,0,1.4,0c0.7,0,1.4-0.1,2.1-0.1
			c0.9-0.1,1.8-0.2,2.7-0.3c0.9-0.1,1.7-0.3,2.6-0.5c0.7-0.1,1.4-0.3,2.1-0.5c0.5-0.1,1-0.3,1.4-0.4c0.3-0.1,0.5-0.2,0.8-0.3
			c0.1,0,0.2-0.1,0.3-0.1c0,0,0,0,0,0C37,49,34.7,47.6,34.7,47.6z M21.9,39.9c-1-4.7-0.2-8.9,1.8-9.4c2-0.5,4.5,2.8,5.5,7.5
			c1,4.7,0.2,8.9-1.8,9.4C25.4,47.9,22.9,44.6,21.9,39.9z"/>
		<path class="st1" d="M28.7,16.4c0.1,0,0.2,0,0.3-0.1l14.3-7.5c0.3-0.2,0.4-0.5,0.3-0.8c-0.2-0.3-0.5-0.4-0.8-0.3l-14.3,7.5
			c-0.3,0.2-0.4,0.5-0.3,0.8C28.3,16.3,28.5,16.4,28.7,16.4z"/>
		<path class="st1" d="M46.7,14l-10.5,1.2c-0.3,0-0.6,0.5-0.5,0.8c0,0.3,0.3,0.6,0.6,0.6c0,0,0,0,0.1,0l10.5-1.3
			c0.3,0,0.6-0.4,0.5-0.7C47.4,14.2,47.1,13.9,46.7,14z"/>
		<path class="st1" d="M44.1,20.6l-14.7-2.7c-0.3-0.1-0.6,0.2-0.7,0.5c-0.1,0.3,0.2,0.6,0.5,0.7l14.7,2.7c0,0,0.1,0,0.1,0
			c0.3,0,0.5-0.2,0.6-0.5C44.7,21,44.4,20.7,44.1,20.6z"/>
	</g>
</g>
</svg>
