<?xml version="1.0" encoding="utf-8"?>
<!-- Generator: Adobe Illustrator 19.1.1, SVG Export Plug-In . SVG Version: 6.00 Build 0)  -->
<!DOCTYPE svg PUBLIC "-//W3C//DTD SVG 1.1//EN" "http://www.w3.org/Graphics/SVG/1.1/DTD/svg11.dtd">
<svg version="1.1" id="Layer_1" xmlns="http://www.w3.org/2000/svg" xmlns:xlink="http://www.w3.org/1999/xlink" x="0px" y="0px"
	 width="58px" height="58px" viewBox="0 0 58 58" style="enable-background:new 0 0 58 58;" xml:space="preserve">
<style type="text/css">
	.st0{fill:#752100;}
	.st1{fill:#FFFFFF;}
</style>
<g>
	<path class="st0" d="M58,45c0,7.2-5.8,13-13,13H13C5.8,58,0,52.2,0,45V13C0,5.8,5.8,0,13,0H45c7.2,0,13,5.8,13,13V45z"/>
	<path class="st1" d="M43.3,19.3c-2.3-2.9-7.1-4.3-9.6-4.8c-0.1,0-0.1,0-0.2,0c-0.1,0-0.2,0-0.3-0.1c-0.1,0-0.2,0-0.3-0.1
		c-0.1,0-0.1,0-0.2,0c-2.6-0.4-7.5-0.9-10.7,1c-0.6,0.3-7.2,4.2-8.9,13.2c0,0-1.7,8.7-2,11.7c-0.1,1.2-0.1,3.7,2.9,3.9
		c1.6,0.1,2.9-0.2,3.8-5.2l9.3,1.7l2.4,0.4l9.3,1.7c2.2,5.4,6,2,6.4,0.8c0.8-2.8,1.7-8.8,1.7-8.8C48.5,25.8,43.7,19.8,43.3,19.3z
		 M17.3,29l0.2-3.4l9.9,9.3l-0.2,3.4L17.3,29z M42.6,36.5c-0.3,1.8-2.6,2.9-5.1,2.5c-2.5-0.5-4.2-2.3-3.8-4.1
		c0.3-1.8,2.6-2.9,5.1-2.4C41.2,32.8,42.9,34.7,42.6,36.5z M32.5,24.6l-2.4-0.4l-11.5-2.1c2.3-4.8,5.8-5.9,5.8-5.9
		c2.2-0.5,5.8-0.1,8.3,0.4c2.5,0.5,6,1.4,7.9,2.7c0,0,2.9,2.3,3.3,7.6L32.5,24.6z"/>
</g>
</svg>
