<?xml version="1.0" encoding="utf-8"?>
<!-- Generator: Adobe Illustrator 19.1.1, SVG Export Plug-In . SVG Version: 6.00 Build 0)  -->
<!DOCTYPE svg PUBLIC "-//W3C//DTD SVG 1.1//EN" "http://www.w3.org/Graphics/SVG/1.1/DTD/svg11.dtd">
<svg version="1.1" id="Layer_1" xmlns="http://www.w3.org/2000/svg" xmlns:xlink="http://www.w3.org/1999/xlink" x="0px" y="0px"
	 width="58px" height="58px" viewBox="0 0 58 58" style="enable-background:new 0 0 58 58;" xml:space="preserve">
<style type="text/css">
	.st0{fill:#00BCD4;}
	.st1{fill:#FFFFFF;}
</style>
<g>
	<path class="st0" d="M58,45c0,7.2-5.8,13-13,13H13C5.8,58,0,52.2,0,45V13C0,5.8,5.8,0,13,0H45c7.2,0,13,5.8,13,13V45z"/>
	<path class="st1" d="M49.3,18.4l-0.7-1.8H34.2l-0.5,2.8h-5.5l-0.3-2.8H13.4c-1.6,2.8-1.7,4.1-1.7,4.1c-0.6,2.8,1.8,4.3,1.8,4.3
		c2.4,1.8,0.7,4.6,0.7,4.6l-4.7,8.3c-1.6,2.3-0.8,2.8-0.8,2.8c2.9,3.4,9.2,2.4,9.2,2.4c2.6,0,2.7-1.6,2.7-1.6l4.1-9.3
		c0.5-1.1,1.4-0.7,1.4-0.7c1,2.4,6.7,1.5,6.7,1.5c4.9,0,3.9-6.8,3.9-6.8l0.8-1.4h12.2v-2.5C52.5,20.4,49.3,18.4,49.3,18.4z
		 M32.2,31.7c0,0-5,0.8-6-2.1c0,0-0.5-1.5,1.1-2.6c0,0,0.6,3.2,3,2.9c0,0-1.4-1.7-0.8-3.2c0,0-0.3-0.6,2-0.6c0,0,4-0.4,3.6,2.9
		C35.3,28.9,35.5,31.7,32.2,31.7z"/>
</g>
</svg>
