<?xml version="1.0" encoding="iso-8859-1"?>
<!-- Generator: Adobe Illustrator 19.1.1, SVG Export Plug-In . SVG Version: 6.00 Build 0)  -->
<!DOCTYPE svg PUBLIC "-//W3C//DTD SVG 1.1//EN" "http://www.w3.org/Graphics/SVG/1.1/DTD/svg11.dtd">
<svg version="1.1" id="Layer_1" xmlns="http://www.w3.org/2000/svg" xmlns:xlink="http://www.w3.org/1999/xlink" x="0px" y="0px"
	 width="65px" height="67px" viewBox="-30 29 65 67" style="enable-background:new -30 29 65 67;" xml:space="preserve">
<style type="text/css">
	.st0{fill:#9E005D;}
	.st1{fill:#FFFFFF;}
	.st2{fill:#39B54A;}
</style>
<g>
	<g>
		<path class="st0" d="M28.1,83.1c0,7.1-5.8,12.9-13,12.9H-17c-7.2,0-13-5.8-13-12.9V51.3c0-7.2,5.8-12.9,13-12.9h32.1
			c7.2,0,13,5.8,13,12.9V83.1z"/>
		<g>
			<path class="st1" d="M5.4,57.1c-0.7-0.9-1.5-1.6-2.6-2.1c-1.1-0.4-2.2-0.7-3.4-0.7c-0.7,0-1.4,0.1-2.1,0.2
				c-0.7,0.2-1.3,0.4-1.8,0.8s-1,0.8-1.3,1.4c-0.3,0.6-0.5,1.2-0.5,2c0,1.2,0.4,2.1,1.2,2.7c0.8,0.6,1.8,1.1,3,1.6s2.5,0.9,4,1.3
				c1.4,0.4,2.8,1,4,1.7c1.2,0.7,2.2,1.7,3,3c0.8,1.2,1.2,2.9,1.2,4.9c0,1.8-0.3,3.5-1,4.8c-0.7,1.4-1.6,2.5-2.8,3.4s-2.5,1.6-4,2
				c-1.5,0.5-3.1,0.7-4.8,0.7c-2.2,0-4.2-0.4-6.2-1.1s-3.7-1.9-5.1-3.6l4.6-4.5c0.7,1.1,1.7,2,3,2.6c1.2,0.6,2.5,0.9,3.9,0.9
				c0.7,0,1.4-0.1,2.2-0.3c0.7-0.2,1.4-0.5,2-0.9S3,77,3.3,76.4c0.4-0.6,0.5-1.3,0.5-2.1c0-1.3-0.4-2.2-1.2-2.9s-1.8-1.3-3-1.7
				c-1.2-0.5-2.5-0.9-4-1.3c-1.4-0.4-2.8-1-4-1.7c-1.2-0.7-2.2-1.7-3-2.9s-1.2-2.8-1.2-4.9c0-1.8,0.4-3.3,1.1-4.6s1.7-2.4,2.9-3.2
				c1.2-0.9,2.5-1.5,4.1-1.9c1.5-0.4,3.1-0.6,4.7-0.6c1.8,0,3.6,0.3,5.3,0.8s3.3,1.5,4.6,2.7L5.4,57.1z"/>
		</g>
	</g>
	<path class="st2" d="M31.4,32.5c-4.7-4.7-12.4-4.7-17.2,0c-4.7,4.7-4.7,12.4,0,17.1s12.4,4.7,17.2,0C36.2,44.9,36.2,37.3,31.4,32.5
		z"/>
</g>
</svg>
