<?xml version="1.0" encoding="utf-8"?>
<!-- Generator: Adobe Illustrator 19.2.1, SVG Export Plug-In . SVG Version: 6.00 Build 0)  -->
<svg version="1.1" id="Layer_1" xmlns="http://www.w3.org/2000/svg" xmlns:xlink="http://www.w3.org/1999/xlink" x="0px" y="0px"
	 width="58px" height="58px" viewBox="0 0 58 58" style="enable-background:new 0 0 58 58;" xml:space="preserve">
<style type="text/css">
	.st0{fill:#9E005D;}
	.st1{fill:#FFFFFF;}
</style>
<g>
	<g>
		<path class="st0" d="M58,45c0,7.1-5.8,13-13,13H13C5.8,58,0,52.2,0,45V13C0,5.7,5.8,0,13,0h32c7.2,0,13,5.8,13,13
			C58,13,58,45,58,45z"/>
		<path class="st1" d="M43,36.7c0-2.7-0.8-4.8-2.5-6.3c-1.4-1.3-3.5-2.3-6.3-2.9L28.4,26c-2.2-0.5-3.6-0.9-4.3-1.4
			c-1.1-0.6-1.7-1.5-1.7-2.7c0-2.8,2-4.5,6-4.5c4.3,0,6.5,2,6.7,4.7h6.8c0-2.8-1.4-5.8-4.1-7.8c-2.3-1.8-5.3-2.5-8.9-2.5
			s-6.6,0.9-9,2.6c-2.6,1.8-3.9,4.5-3.9,8.1c0,3.3,1.1,5.7,3.4,7.3c0.7,0.5,1.7,0.9,2.9,1.4c1.2,0.5,2.7,0.9,4.4,1.2l3.6,0.8
			c4,0.9,6,2.2,6,4.1c0,2.9-2.3,4.4-6.9,4.4c-2.8,0-4.8-0.8-5.9-2.2c-0.6-0.7-1.1-0.7-1.3-3.5h-6.7c0,2.8,1.5,6.8,4.3,8.7
			c2.5,1.7,5.8,2.7,9.8,2.7c3.6,0,6.6-0.8,9.2-2.5C41.6,42.9,43,40.2,43,36.7"/>
	</g>
</g>
</svg>
