<?xml version="1.0" encoding="utf-8"?>
<!-- Generator: Adobe Illustrator 19.1.1, SVG Export Plug-In . SVG Version: 6.00 Build 0)  -->
<!DOCTYPE svg PUBLIC "-//W3C//DTD SVG 1.1//EN" "http://www.w3.org/Graphics/SVG/1.1/DTD/svg11.dtd">
<svg version="1.1" id="Layer_1" xmlns="http://www.w3.org/2000/svg" xmlns:xlink="http://www.w3.org/1999/xlink" x="0px" y="0px"
	 width="58px" height="58px" viewBox="0 0 58 58" style="enable-background:new 0 0 58 58;" xml:space="preserve">
<style type="text/css">
	.st0{fill:#A81E2C;}
	.st1{fill:#FFFFFF;}
</style>
<g>
	<path class="st0" d="M58,45c0,7.2-5.8,13-13,13H13C5.8,58,0,52.2,0,45V13C0,5.8,5.8,0,13,0H45c7.2,0,13,5.8,13,13V45z"/>
</g>
<path class="st1" d="M32.4,23.4l3.9-7.5c0.6-1.3,2.1-1.8,3.4-1.2l0.2,0.1c1.3,0.6,1.8,2.1,1.2,3.4l-3.9,7.5
	c-0.6,1.3-2.1,1.8-3.4,1.2l-0.2-0.1C32.3,26.2,31.8,24.7,32.4,23.4z M44.7,21.2l-0.2-0.1c-1.3-0.6-2.8-0.1-3.4,1.2l-3,5.6
	c-0.6,1.3-0.1,2.8,1.2,3.4l0.2,0.1c1.3,0.6,2.8,0.1,3.4-1.2l3-5.6C46.5,23.4,45.9,21.8,44.7,21.2z M36.2,29.4c0,0-6.7,0.2-6.2-4.7
	h-7c0,0-1.3-0.4-2.1-1.8l6.5,0c1.6,0,2.9-1.3,2.9-2.8l0-0.2c0-1.5-1.3-2.8-2.9-2.8l-7.5,0c0,0,0,0-0.1,0l0,0c0,0-3.4-0.4-4.8,3.3
	l-2.9,10.1c0,0-1,2.9,1.4,4.8l2.5,2.4c0,0,1.5,1.4,1.5,4.2v6.3h19.7v-3.5c0,0,0-1.5,1.2-2.2c0,0,0.8-0.1,2.4-4.2l2-5.1
	C42.6,33.1,36.4,35.4,36.2,29.4z M27.3,13.6c0.6-1.3,0.1-2.8-1.2-3.4L26,10.1c-1.3-0.6-2.8-0.1-3.4,1.2l-2.1,4.3h5.8L27.3,13.6z
	 M32.2,19.1v1l2.9-6c0.6-1.3,0.1-2.8-1.2-3.4l-0.2-0.1c-1.3-0.6-2.8-0.1-3.4,1.2l-1.9,3.9h0.2C30.6,15.6,32.2,17.2,32.2,19.1z"/>
</svg>
