<?xml version="1.0" encoding="utf-8"?>
<!-- Generator: Adobe Illustrator 19.1.1, SVG Export Plug-In . SVG Version: 6.00 Build 0)  -->
<!DOCTYPE svg PUBLIC "-//W3C//DTD SVG 1.1//EN" "http://www.w3.org/Graphics/SVG/1.1/DTD/svg11.dtd">
<svg version="1.1" id="Layer_1" xmlns="http://www.w3.org/2000/svg" xmlns:xlink="http://www.w3.org/1999/xlink" x="0px" y="0px"
	 width="58px" height="58px" viewBox="0 0 58 58" style="enable-background:new 0 0 58 58;" xml:space="preserve">
<style type="text/css">
	.st0{fill:#FFFFFF;}
</style>
<g>
	<path d="M58,45c0,7.2-5.8,13-13,13H13C5.8,58,0,52.2,0,45V13C0,5.8,5.8,0,13,0H45c7.2,0,13,5.8,13,13V45z"/>
	<path class="st0" d="M53.2,29.6c-2.7-14.1-23.6-11.2-24-11.1c-0.4-0.1-21.3-3-24,11.1c-0.8,4.1-0.9,11.8,12,11.4
		c0,0,5.7,0.6,8.3-5.9c0.3-0.7,1.1-0.9,1.8-1c1.2-0.1,2.5-0.1,3.7,0c0.7,0.1,1.6,0.3,1.9,1c2.6,6.5,8.3,5.9,8.3,5.9
		C54.1,41.4,54,33.7,53.2,29.6z M23.8,30.2c-1,2.1-4.4,3.5-6.6,3.6c-1.5,0-2.9-0.6-4.2-1.3c-0.8-0.4-1.7-1.6-1.8-2.5
		c-0.3-1.9,1.8-3.6,3.2-4.4c1.6-0.9,3.7-1.1,5.5-0.8c1.2,0.2,2.4,0.5,3.2,1.4c0.1,0.1,0.2,0.2,0.3,0.4C24.3,27.7,24.4,29,23.8,30.2z
		 M48.7,30c-0.1,0.9-1,2-1.8,2.5c-1.3,0.7-2.7,1.4-4.2,1.3c-2.2,0-5.5-1.5-6.6-3.6c-0.6-1.2-0.5-2.5,0.3-3.6
		c0.1-0.1,0.2-0.3,0.3-0.4c0.9-0.9,2-1.2,3.2-1.4c1.8-0.3,3.9,0,5.5,0.8C46.9,26.4,48.9,28.1,48.7,30z"/>
</g>
</svg>
