<?xml version="1.0" encoding="utf-8"?>
<!-- Generator: Adobe Illustrator 19.1.1, SVG Export Plug-In . SVG Version: 6.00 Build 0)  -->
<!DOCTYPE svg PUBLIC "-//W3C//DTD SVG 1.1//EN" "http://www.w3.org/Graphics/SVG/1.1/DTD/svg11.dtd">
<svg version="1.1" id="Layer_1" xmlns="http://www.w3.org/2000/svg" xmlns:xlink="http://www.w3.org/1999/xlink" x="0px" y="0px"
	 width="58px" height="58px" viewBox="0 0 58 58" style="enable-background:new 0 0 58 58;" xml:space="preserve">
<style type="text/css">
	.st0{fill:#FEBF04;}
	.st1{fill:#FFFFFF;}
</style>
<g>
	<path class="st0" d="M58,45c0,7.2-5.8,13-13,13H13C5.8,58,0,52.2,0,45V13C0,5.8,5.8,0,13,0H45c7.2,0,13,5.8,13,13V45z"/>
	<path class="st1" d="M32.6,35.2c-0.4,2.5-2.9,4.1-5.6,3.7l0,0c-2.6-0.5-4.4-2.9-3.9-5.4l2-25.8c0.5-2.5,3-4.1,5.6-3.7L35.5,5
		c2.6,0.5,4.4,2.9,3.9,5.4L32.6,35.2z M21,46.4c-0.4,2.4,1.1,4.7,3.5,5.1c2.4,0.4,4.7-1.1,5.1-3.5c0.4-2.4-1.1-4.7-3.5-5.1
		C23.8,42.4,21.5,44,21,46.4z"/>
</g>
</svg>
