<?xml version="1.0" encoding="utf-8"?>
<!-- Generator: Adobe Illustrator 19.1.1, SVG Export Plug-In . SVG Version: 6.00 Build 0)  -->
<!DOCTYPE svg PUBLIC "-//W3C//DTD SVG 1.1//EN" "http://www.w3.org/Graphics/SVG/1.1/DTD/svg11.dtd">
<svg version="1.1" id="Layer_1" xmlns="http://www.w3.org/2000/svg" xmlns:xlink="http://www.w3.org/1999/xlink" x="0px" y="0px"
	 width="58px" height="58px" viewBox="0 0 58 58" style="enable-background:new 0 0 58 58;" xml:space="preserve">
<style type="text/css">
	.st0{fill:#1F81E5;}
	.st1{fill:#FFFFFF;}
</style>
<g>
	<path class="st0" d="M58,45c0,7.2-5.8,13-13,13H13C5.8,58,0,52.2,0,45V13C0,5.8,5.8,0,13,0H45c7.2,0,13,5.8,13,13V45z"/>
	<g>
		<path class="st1" d="M7.5,29.2c1.5,1.7,3.1,3.3,4.6,5c2,2.2,4.1,4.4,6.1,6.6c1.8,2,4.7,2.1,6.7,0.4c0.4-0.4,0.8-0.9,1.1-1.4
			c0.1-0.1,0.1-0.3,0.2-0.3c0.1-0.5,0.2-1,0.4-1.6c-0.1-0.1-0.1-0.3-0.1-0.4c0-1.3-0.5-2.3-1.4-3.2c-1.8-1.9-3.6-3.8-5.3-5.7
			c-1.8-1.9-3.6-3.9-5.4-5.8c-2-2.1-5.1-2.1-7-0.1C5.7,24.5,5.7,27.3,7.5,29.2z M8.1,25.6c0.1-0.5,0.3-0.9,0.6-1.3
			c1.3-1.6,3.4-1.6,4.9-0.1c1.4,1.5,2.9,3.1,4.3,4.6c0.2,0.2,0.2,0.2,0,0.4c-1.4,1.3-2.8,2.6-4.2,3.9c-0.2,0.1-0.2,0.2-0.4,0
			c-1.4-1.5-2.9-3.1-4.3-4.6C8.2,27.7,7.9,26.8,8.1,25.6z"/>
		<path class="st1" d="M36.1,30.8c0-0.4,0.2-0.8,0.4-1.1c0.1-0.1,0.2-0.2,0.3-0.3c1.4-1.7,2.9-3.3,4.3-5c3.4-3.9,6.9-7.9,10.3-11.8
			c0.1-0.2,0.3-0.3,0.4-0.5c0,0,0,0-0.1,0c0,0-0.1,0-0.1,0c-10.9,0-21.8,0-32.7,0c-0.1,0-0.1,0-0.2,0c0,0,0.1,0.1,0.1,0.1
			c2.1,2.4,4.2,4.9,6.3,7.3c2.8,3.2,5.5,6.4,8.3,9.6c0.2,0.2,0.4,0.5,0.6,0.7c0.2,0.3,0.3,0.6,0.4,0.9c0,0.3,0,0.5,0,0.8
			c0,1,0,1.9,0,2.9c0,2.7,0,5.4,0,8c0,0.2,0,0.5-0.1,0.7c-0.1,0.3-0.2,0.5-0.5,0.6c-0.1,0-0.2,0.1-0.3,0.1c-0.5,0.1-1.1,0.2-1.6,0.3
			c-0.8,0.1-1.5,0.2-2.3,0.4c-0.9,0.1-1.8,0.3-2.7,0.4c-0.5,0.1-0.9,0.1-1.4,0.2c-0.1,0-0.1,0-0.1,0.1c0,0.2,0,0.5,0,0.7
			c6.5,0,12.9,0,19.4,0c0,0,0,0,0-0.1c0-0.2,0-0.4,0-0.6c0-0.1,0-0.1-0.1-0.1c-0.2,0-0.4-0.1-0.6-0.1c-1.1-0.2-2.2-0.4-3.3-0.5
			c-1.2-0.2-2.3-0.4-3.5-0.6c-0.3,0-0.5-0.1-0.8-0.2c-0.3-0.1-0.5-0.3-0.5-0.6c0-0.2-0.1-0.5-0.1-0.7c0-3.4,0-6.8,0-10.2
			C36,31.7,36,31.2,36.1,30.8z M24.7,16.5c-0.1,0-0.2,0-0.3-0.1c-0.7-0.9-1.5-1.8-2.2-2.7c0-0.1-0.1-0.1-0.1-0.2
			c8.9,0,17.8,0,26.7,0c0,0,0,0.1,0,0.1c-0.8,1-1.6,1.9-2.4,2.9c0,0.1-0.1,0.1-0.2,0.1c-0.1,0-0.1,0-0.2,0
			C38.9,16.5,31.8,16.5,24.7,16.5z"/>
	</g>
</g>
</svg>
