<?xml version="1.0" encoding="utf-8"?>
<!-- Generator: Adobe Illustrator 19.1.1, SVG Export Plug-In . SVG Version: 6.00 Build 0)  -->
<!DOCTYPE svg PUBLIC "-//W3C//DTD SVG 1.1//EN" "http://www.w3.org/Graphics/SVG/1.1/DTD/svg11.dtd">
<svg version="1.1" id="Layer_1" xmlns="http://www.w3.org/2000/svg" xmlns:xlink="http://www.w3.org/1999/xlink" x="0px" y="0px"
	 width="58px" height="58px" viewBox="0 0 58 58" style="enable-background:new 0 0 58 58;" xml:space="preserve">
<style type="text/css">
	.st0{fill:#036163;}
	.st1{fill:#FFFFFF;}
</style>
<g>
	<path class="st0" d="M58,45c0,7.2-5.8,13-13,13H13C5.8,58,0,52.2,0,45V13C0,5.8,5.8,0,13,0H45c7.2,0,13,5.8,13,13V45z"/>
	<g>
		<path class="st1" d="M35.4,8.3c-2.1-1.9-5.9-2.8-7.9-2.8c-0.1,0-0.1,0-0.2,0c-0.1,0-0.2,0-0.2,0c-0.1,0-0.2,0-0.2,0
			c-0.1,0-0.1,0-0.2,0c-2,0-5.8,0.9-7.9,2.8C18.4,8.7,14,12.8,14,19.7c0,0-0.1,6.9,0.1,9.2c0.1,0.9,0.4,3.1,2.7,2.8
			c1.2-0.2,2.1-1.3,2.1-4.1h7.2H28h7.2c0,2.8,0.9,4,2.1,4.2c2.3,0.3,2.6-1.7,2.7-2.6c0.2-2.2,0.1-9.4,0.1-9.4
			C40.2,12.8,35.8,8.7,35.4,8.3z M20.4,24.9c-2.2,0-4-1.3-4-3c0-1.7,1.8-3,4-3c2.2,0,4,1.3,4,3C24.4,23.6,22.6,24.9,20.4,24.9z
			 M26.2,13.8h-8.9c1.1-2.8,3.6-4.9,3.6-4.9c1.6-0.7,4.3-0.7,6.3-0.7c1.9,0,4.7,0,6.3,0.7c0,0,2.5,2.2,3.6,5H28H26.2z M33.8,24.9
			c-2.2,0-4.1-1.3-4.1-3c0-1.7,1.8-3,4.1-3c2.2,0,4.1,1.3,4.1,3C37.9,23.6,36.1,24.9,33.8,24.9z"/>
		<g>
			<path class="st1" d="M40.4,49.7c-0.3,0-0.5-0.1-0.7-0.3c-1.3-1.2-2.8-2.8-2.6-4.6c0.2-1.2,1.1-2.2,2.9-3.1
				c0.3-0.1,0.6-0.3,0.9-0.4c0.8-0.3,1.9-0.6,2.4-1.3c0.8-1.1-0.9-2-1.7-2.4c-1.1-0.6-2.4-1.1-3.3-2.2c-0.4-0.5-1.9-2.2-0.9-2.7
				c0.4-0.2,0.6,0.7,0.7,0.9c0.6,1.8,2.4,2.2,4,2.9c1.2,0.5,3.2,1.2,3.3,2.8c0.1,1.9-2.2,3.3-3.6,3.9c-0.3,0.1-0.6,0.3-0.8,0.4
				c-1,0.5-1.6,1-1.7,1.4c-0.1,0.4,0.2,1.2,1.9,2.7c0.4,0.4,0.5,1.1,0.1,1.5C41,49.6,40.7,49.7,40.4,49.7z"/>
		</g>
		<g>
			<path class="st1" d="M19,49.7c-0.3,0-0.5-0.1-0.7-0.3c-1.3-1.2-2.8-2.8-2.6-4.6c0.2-1.2,1.1-2.2,2.9-3.1c0.3-0.1,0.6-0.3,0.9-0.4
				c0.8-0.3,1.9-0.6,2.4-1.3c0.8-1.1-0.9-2-1.7-2.4c-1.1-0.6-2.4-1.1-3.3-2.2c-0.4-0.5-1.9-2.2-0.9-2.7c0.4-0.2,0.6,0.7,0.7,0.9
				c0.6,1.8,2.4,2.2,4,2.9c1.2,0.5,3.2,1.2,3.3,2.8c0.1,1.9-2.2,3.3-3.6,3.9c-0.3,0.1-0.6,0.3-0.8,0.4c-1,0.5-1.6,1-1.7,1.4
				c-0.1,0.4,0.2,1.2,1.9,2.7c0.4,0.4,0.5,1.1,0.1,1.5C19.6,49.6,19.3,49.7,19,49.7z"/>
		</g>
	</g>
</g>
</svg>
