<?xml version="1.0" encoding="utf-8"?>
<!-- Generator: Adobe Illustrator 19.1.1, SVG Export Plug-In . SVG Version: 6.00 Build 0)  -->
<!DOCTYPE svg PUBLIC "-//W3C//DTD SVG 1.1//EN" "http://www.w3.org/Graphics/SVG/1.1/DTD/svg11.dtd">
<svg version="1.1" id="Layer_1" xmlns="http://www.w3.org/2000/svg" xmlns:xlink="http://www.w3.org/1999/xlink" x="0px" y="0px"
	 width="58px" height="58px" viewBox="0 0 58 58" style="enable-background:new 0 0 58 58;" xml:space="preserve">
<style type="text/css">
	.st0{fill:#25C827;}
	.st1{fill:#FFFFFF;}
</style>
<g>
	<path class="st0" d="M58,45c0,7.2-5.8,13-13,13H13C5.8,58,0,52.2,0,45V13C0,5.8,5.8,0,13,0H45c7.2,0,13,5.8,13,13V45z"/>
	<path class="st1" d="M10.6,32c0-0.5,0.4-0.9,0.9-0.9h10.1c0.5,0,0.9,0.4,0.9,0.9s-0.4,0.9-0.9,0.9H11.4C11,32.9,10.6,32.5,10.6,32z
		 M11.4,37.2h17.4c0.5,0,0.9-0.4,0.9-0.9s-0.4-0.9-0.9-0.9H11.4c-0.5,0-0.9,0.4-0.9,0.9S11,37.2,11.4,37.2z M10.5,18.6h25.3
		c0.3-0.4,0.7-0.8,1.1-1.1c0.1-0.1,0.2-0.2,0.3-0.2H10.5c-2.5,0-4.5,2-4.5,4.5v14.7c0,2.5,2,4.5,4.5,4.5h25.3
		c-0.6-0.4-1.1-0.9-1.6-1.4l0,0H10.5c-1.7,0-3.1-1.4-3.1-3.1V28h27.1c-0.5-1.1-0.7-2.3-0.7-3.7c0-1,0.2-2,0.5-2.9H7.5
		C7.6,19.8,8.9,18.6,10.5,18.6z M52,33.2c0,1-0.2,1.8-0.5,2.6c-0.4,0.8-0.8,1.4-1.4,1.9c-0.6,0.5-1.3,1-2.1,1.3
		c-0.8,0.3-1.7,0.5-2.6,0.6v4.1h-1.6v-4.1c-1.3,0-2.5-0.2-3.7-0.6c-1.2-0.4-2.2-1.1-3.1-2l2.7-2.7c0.5,0.7,1.1,1.2,1.8,1.5
		c0.7,0.4,1.5,0.6,2.3,0.6v-6.2l-0.1,0c-0.8-0.2-1.6-0.5-2.3-0.8c-0.7-0.3-1.4-0.7-2-1.1c-0.6-0.5-1-1-1.4-1.7
		c-0.3-0.7-0.5-1.5-0.5-2.4c0-0.9,0.2-1.7,0.5-2.4c0.4-0.7,0.8-1.3,1.4-1.8c0.6-0.5,1.3-0.9,2-1.2c0.8-0.3,1.6-0.5,2.4-0.6v-4h1.6
		v3.9h0.3c1,0,2,0.2,3.1,0.5c1,0.3,1.9,0.8,2.7,1.5l-2.4,2.7c-0.5-0.5-1-0.9-1.6-1.2c-0.6-0.3-1.3-0.4-2-0.4v5.9l0.1,0
		c0.8,0.2,1.6,0.5,2.4,0.7c0.8,0.3,1.5,0.6,2.1,1.1c0.6,0.4,1.1,1,1.5,1.7C51.8,31.4,52,32.2,52,33.2z M43.7,21.4
		c-0.7,0.1-1.3,0.4-1.8,0.9c-0.5,0.5-0.8,1.1-0.8,1.8c0,0.5,0.1,0.8,0.2,1.1c0.1,0.3,0.3,0.5,0.6,0.7c0.2,0.2,0.5,0.4,0.8,0.5
		c0.3,0.1,0.7,0.3,1,0.4V21.4z M48.3,33.5c0-0.4-0.1-0.8-0.3-1.1c-0.2-0.3-0.4-0.5-0.7-0.7c-0.3-0.2-0.6-0.4-1-0.5
		c-0.4-0.1-0.7-0.3-1.1-0.4v5.7c0.4-0.1,0.8-0.2,1.2-0.4c0.4-0.2,0.7-0.4,1-0.6c0.3-0.2,0.5-0.5,0.7-0.9
		C48.2,34.3,48.3,33.9,48.3,33.5z"/>
</g>
</svg>
