<?xml version="1.0" encoding="utf-8"?>
<!-- Generator: Adobe Illustrator 19.1.1, SVG Export Plug-In . SVG Version: 6.00 Build 0)  -->
<!DOCTYPE svg PUBLIC "-//W3C//DTD SVG 1.1//EN" "http://www.w3.org/Graphics/SVG/1.1/DTD/svg11.dtd">
<svg version="1.1" id="Layer_1" xmlns="http://www.w3.org/2000/svg" xmlns:xlink="http://www.w3.org/1999/xlink" x="0px" y="0px"
	 width="58px" height="58px" viewBox="0 0 58 58" style="enable-background:new 0 0 58 58;" xml:space="preserve">
<style type="text/css">
	.st0{fill:#9C27B0;}
	.st1{fill:#FFFFFF;}
</style>
<g>
	<path class="st0" d="M58,45c0,7.2-5.8,13-13,13H13C5.8,58,0,52.2,0,45V13C0,5.8,5.8,0,13,0H45c7.2,0,13,5.8,13,13V45z"/>
	<path class="st1" d="M41.3,12.1c-3.1-2.7-8.6-3.8-11.5-3.8c-0.1,0-0.2,0-0.2,0c-0.1,0-0.2,0-0.3,0c-0.1,0-0.2,0-0.4,0
		c-0.1,0-0.2,0-0.2,0c-2.9,0-8.4,1-11.5,3.8c-0.6,0.5-7,6.3-7,16.4c0,0-0.1,10,0.2,13.3c0.1,1.3,0.6,3.9,3.9,3.5
		c1.8-0.2,3.1-1.1,3.1-6.6h10.5h2.7h10.5c0,5.5,1.3,6.4,3.1,6.7c3.3,0.4,3.8-2.2,3.9-3.5c0.3-3.3,0.2-13.4,0.2-13.4
		C48.3,18.3,41.8,12.5,41.3,12.1z M19.5,35.3c-2.8,0-5-1.7-5-3.7c0-2,2.2-3.7,5-3.7c2.7,0,5,1.7,5,3.7
		C24.4,33.6,22.2,35.3,19.5,35.3z M27.8,19.3h-13c1.6-5.5,5.2-7,5.2-7c2.3-1,6.3-0.9,9.2-1c2.8,0,6.9-0.2,9.2,0.8
		c0,0,3.6,1.6,5.2,7.1h-13H27.8z M39,35.3c-2.8,0-5-1.7-5-3.7c0-2,2.2-3.7,5-3.7c2.8,0,5,1.7,5,3.7C44.1,33.6,41.8,35.3,39,35.3z"/>
</g>
</svg>
